/* XPM */
static char * jt11_32_xpm[] = {
"32 32 257 2",
"  	c None",
". 	c #320BF5",
"+ 	c #C3B6BC",
"@ 	c #692F57",
"# 	c #FFCC00",
"$ 	c #645CF0",
"% 	c #C3B8C9",
"& 	c #CF7838",
"* 	c #4117E5",
"= 	c #8C87F7",
"- 	c #FFAD00",
"; 	c #665368",
"> 	c #AB99A6",
", 	c #3213F5",
"' 	c #7653A6",
") 	c #9E255C",
"! 	c #CB1B52",
"~ 	c #F0ED4A",
"{ 	c #D8D64F",
"] 	c #988BA3",
"^ 	c #AB9F9A",
"/ 	c #716170",
"( 	c #FFFE00",
"_ 	c #C9C050",
": 	c #703676",
"< 	c #D2883B",
"[ 	c #A7A3F8",
"} 	c #55404C",
"| 	c #FFBD00",
"1 	c #B49B9E",
"2 	c #F3E927",
"3 	c #FFF200",
"4 	c #FFB400",
"5 	c #640F21",
"6 	c #796CCA",
"7 	c #B70072",
"8 	c #731823",
"9 	c #371D34",
"0 	c #978588",
"a 	c #FFC500",
"b 	c #2818FF",
"c 	c #8C7A91",
"d 	c #9C441C",
"e 	c #3935FF",
"f 	c #E7D7AD",
"g 	c #560129",
"h 	c #5A436C",
"i 	c #FBED01",
"j 	c #776893",
"k 	c #EAC6DD",
"l 	c #C7C3C3",
"m 	c #B8AB9F",
"n 	c #2C06FC",
"o 	c #9B075A",
"p 	c #A10072",
"q 	c #6E338C",
"r 	c #937B9D",
"s 	c #988896",
"t 	c #691324",
"u 	c #FFA500",
"v 	c #816877",
"w 	c #E4DFE4",
"x 	c #FFDD00",
"y 	c #D4CDE8",
"z 	c #7C77FB",
"A 	c #977FA9",
"B 	c #FFFFFE",
"C 	c #B8A8C4",
"D 	c #8375B8",
"E 	c #E7E1E9",
"F 	c #8C0098",
"G 	c #6B5A8B",
"H 	c #59354F",
"I 	c #2D0AFB",
"J 	c #BFB9F4",
"K 	c #F3F2FE",
"L 	c #7C67B7",
"M 	c #AD8E6F",
"N 	c #F46B0E",
"O 	c #E4DB30",
"P 	c #740538",
"Q 	c #5B25C4",
"R 	c #6F446A",
"S 	c #F7EAAD",
"T 	c #EAD906",
"U 	c #4E3658",
"V 	c #F28911",
"W 	c #FFB900",
"X 	c #AEA5EA",
"Y 	c #BAB9FF",
"Z 	c #EBD91E",
"` 	c #591B70",
" .	c #310BF6",
"..	c #FFE400",
"+.	c #3428F5",
"@.	c #DBD5E9",
"#.	c #8A3C24",
"$.	c #B76B57",
"%.	c #C5B7A8",
"&.	c #DFDCFE",
"*.	c #CCBA95",
"=.	c #937279",
"-.	c #FF9E00",
";.	c #F49512",
">.	c #725C64",
",.	c #BEB4D9",
"'.	c #6D6AFF",
").	c #4B0C70",
"!.	c #5952F5",
"~.	c #453EFD",
"{.	c #4039F5",
"].	c #3223F5",
"^.	c #A17CB0",
"/.	c #AFA0AA",
"(.	c #A68C9A",
"_.	c #C4BBDF",
":.	c #320AF6",
"<.	c #736CF5",
"[.	c #FFCF00",
"}.	c #E6E1F3",
"|.	c #FFD600",
"1.	c #6C5B98",
"2.	c #8A588B",
"3.	c #473FF5",
"4.	c #E5B408",
"5.	c #450029",
"6.	c #CCC2D5",
"7.	c #67455D",
"8.	c #2921FF",
"9.	c #FF9F00",
"0.	c #2D0CFE",
"a.	c #FFF900",
"b.	c #C3A3AC",
"c.	c #85686C",
"d.	c #8F0086",
"e.	c #D1C6C7",
"f.	c #D3CDF4",
"g.	c #320AF5",
"h.	c #F3760F",
"i.	c #E3920E",
"j.	c #FF9500",
"k.	c #350AF2",
"l.	c #300BF9",
"m.	c #C2C1FF",
"n.	c #390AF3",
"o.	c #270EFF",
"p.	c #2602FF",
"q.	c #8E4B88",
"r.	c #F5C20E",
"s.	c #320BF3",
"t.	c #964C2E",
"u.	c #2A08FF",
"v.	c #320BF4",
"w.	c #AE8C3C",
"x.	c #855D99",
"y.	c #E1D5CE",
"z.	c #4740F8",
"A.	c #514AFF",
"B.	c #C88B50",
"C.	c #B5A27B",
"D.	c #910083",
"E.	c #814A69",
"F.	c #694282",
"G.	c #7C478D",
"H.	c #958CC6",
"I.	c #2F0AF7",
"J.	c #C47448",
"K.	c #9888B6",
"L.	c #F9C30A",
"M.	c #944F0C",
"N.	c #DBD9FF",
"O.	c #D5D1FA",
"P.	c #D3D2F0",
"Q.	c #615BFB",
"R.	c #6058F7",
"S.	c #FFFDD5",
"T.	c #F3B810",
"U.	c #E8E3DD",
"V.	c #CCC8E6",
"W.	c #290EFF",
"X.	c #FDBF09",
"Y.	c #BEB5B5",
"Z.	c #8969A6",
"`.	c #B5A5A5",
" +	c #4537D8",
".+	c #46046E",
"++	c #920049",
"@+	c #841655",
"#+	c #3F05F0",
"$+	c #91817D",
"%+	c #8A3533",
"&+	c #E8A509",
"*+	c #852F40",
"=+	c #DFD432",
"-+	c #975094",
";+	c #8275D3",
">+	c #630031",
",+	c #BCB3E6",
"'+	c #847092",
")+	c #6C04BA",
"!+	c #C58A0C",
"~+	c #681B8E",
"{+	c #5C0A94",
"]+	c #A5123B",
"^+	c #54423A",
"/+	c #8F1835",
"(+	c #D6C074",
"_+	c #930192",
":+	c #EDEDED",
"<+	c #A69EE5",
"[+	c #9F9293",
"}+	c #B97509",
"|+	c #3C2447",
"1+	c #826032",
"2+	c #F5D118",
"3+	c #6A37BC",
"4+	c #FCD104",
"5+	c #F6A20D",
"6+	c #BAB1A6",
"7+	c #5251FF",
"8+	c #E8C907",
"9+	c #944F80",
"0+	c #745D84",
"a+	c #FFFAC1",
"b+	c #2C0BFD",
"c+	c #918AEB",
"d+	c #F27D11",
"e+	c #966D79",
"f+	c #837481",
"g+	c #7B4564",
"h+	c #B2A9E7",
"i+	c #DAD3DD",
"j+	c #DDA808",
"k+	c #42173E",
"l+	c #F9B20C",
"m+	c #C691D2",
"n+	c #C9BEB3",
"o+	c #D5453D",
"p+	c #F7F2F3",
"q+	c #330BF5",
"r+	c #F5FBFF",
"s+	c #C3A0BD",
"t+	c #B63431",
"u+	c #C43D36",
"v+	c #756BDF",
"w+	c #A49AD7",
"x+	c #A2471E",
"y+	c #571C45",
"z+	c #C36616",
"A+	c #40303E",
"B+	c #5D2042",
"C+	c #C19CA2",
"D+	c #9F7057",
"E+	c #5A08C6",
"F+	c #340CF2",
"G+	c #7D74E6",
"H+	c #A6988F",
"s.. . . . . . . . . . . . . . . . . . . . . . . . . . . . . . . ",
". . . . . . . . . . .  . . . . .. . . . . . . . . . . . . . . . ",
". . . . v.. . . . I.b+:.k.k.n.n.l.b+I I I I I I 0.0.0.0.0.0.l.. ",
"g.g.g.:.s.v.g.g. .n.)+p p p o {+#+F D.d.d.d.d.d.F F F F F _+E+b+",
", , , , , , , , u.M L.r.r.T.8 .+B.5+;.;.V V V d+h.h.N N N N ~+W.",
"].].].].].].].].b _ ( ( ( ( 8 .+O ( 3 i ..|.[.a | W - - u 9.q 8.",
"{.{.{.{.{.{.{.{.e _ ( ( ( 3 8 ).=+3 ..x |.[.a | 4 - u 9.9.j.q e ",
"!.!.!.!.!.!.!.!.A._ ( ( ( 3 8 ` O 3 ..x |.[.a | 4 - u 9.9.j.G.7+",
"<.<.<.<.<.<.<.<.'.{ ( ( ( i t ` O 3 ..x |.[.a | 4 - u 9.9.j.2.'.",
"= = = = = = = = = { ( ( ( i 5 : 2 3 ..x |.[.a | 4 4 u 9.-.j.^.= ",
"[ [ [ [ [ [ [ [ [ ~ ( ( ( i 5 : % Y.+ + *.[.a | W z+1 b.b.C+X [ ",
"J J J J ,+J J h+X ~ ( ( ( i 5 : m.Y w+<+6.[.a | | d 1.Y m.'+'+m.",
"(.C N.C c._.O.L L ~ ( ( ( i t @ P.&.f+c y.[.a | | d ; ,.V.f+c f.",
"1 + w e.> w K ,.,.~ ( ( ( T g E.U.y.n+l f [.a | | x+s 6+m ^ ^ ^ ",
"/.^ ^ [+$+s K.r c 2 ( a.( T g B+[+1 ; ; C.[.a | | d |+] Y.} } Y.",
"H v i+> 9 /.E j h 2 a.a.( T g y+w B c c S.[.a | | d U }.B f+v B ",
"v (.B e.7.6.B H.1.2 a.3 ( T g @ :+B s s a+[.a | | d h @.B 0 v B ",
"=.] B l ; % k -+F.Z 3 3 a.8+g @ :+B r r S [.a | | #.h y B 0 >.p+",
"=.r r+s+@+o ++>+R Z 3 i 3 4.g H @.K ^.^.S [.a | | #.; y K (.c.}.",
"e+A m+o ]+t+P >+g+Z ....i 4.5.7.V.&.A r f [.a | W #.>._.&.s c.f.",
"0 D+& &+4+|.8 P ) 2+x x ..j+5.>.y N.] ] f [.a | W t.H+@.K e.n+}.",
"+ _ x x |.# /+o ! X.|.[.x !+5.^ n+%.m `.(+[.a | W t.0 *.%.H+$+0 ",
"/ w.# a a [.u+7 ! # a a |.}+k+A+G D ; U M # a | W #.^+D c+G } ;+",
"0+1+a | | a ;.o+i.a | | a M.' >.6 z D j > | | | 4 %+j G+z 6 G z ",
"v+L l+4 4 4 W | | 4 4 4 4 7.Q.v+$ R.$ $ A W 4 4 4 *+R.Q.R.Q.Q.R.",
"~.~.< 4 - - - - - - - 4 i. +~.~.3.3.3.e Z.4 - - - *+{.z.3.3.3.3.",
"+.8.x.- u u u u u u u - 2.8.+.+.+.+.+.8.' - u u u @ 8.+.+.+.+.+.",
", , , < - 9.9.9.9.9.- $., , , , , , , o.' - u u u q o., , , , , ",
". . n * J.-.u u u -.$.F+n . . . . . . n 3+< & & & Q n . . . . . ",
". . q+n I Q q.9+q.Q n I . . . . . . . . l.I n n n I.. . . . . . ",
". . . . :.u.p.p.p.n :.. . . . . . . . . . :.:.:.:.. . . . . . . ",
". . . . . . . . . . . . . . . . . . . . . . . . . . . . . . . . "};
